<svg width="20" height="9" viewBox="0 0 20 9" fill="none" xmlns="http://www.w3.org/2000/svg">
<path d="M0.920109 4.58078H3.12452V2.37638H4.44089V4.58078H6.6453V5.89716H4.44089V8.10157H3.12452V5.89716H0.920109V4.58078ZM10.2707 2.76293L8.78718 4.06886L7.89915 3.04501L10.3125 1.00777H11.7751V8.40454H10.2707V2.76293ZM13.7894 4.70615C13.7894 4.26736 13.8277 3.8216 13.9043 3.36888C13.9879 2.91616 14.1307 2.50523 14.3326 2.13609C14.5416 1.76694 14.8237 1.46745 15.1789 1.23761C15.5341 1.0008 15.9868 0.882396 16.537 0.882396C17.0873 0.882396 17.54 1.0008 17.8952 1.23761C18.2504 1.46745 18.529 1.76694 18.731 2.13609C18.94 2.50523 19.0827 2.91616 19.1594 3.36888C19.2429 3.8216 19.2847 4.26736 19.2847 4.70615C19.2847 5.14494 19.2429 5.5907 19.1594 6.04342C19.0827 6.49614 18.94 6.90708 18.731 7.27622C18.529 7.64536 18.2504 7.94834 17.8952 8.18515C17.54 8.41499 17.0873 8.52991 16.537 8.52991C15.9868 8.52991 15.5341 8.41499 15.1789 8.18515C14.8237 7.94834 14.5416 7.64536 14.3326 7.27622C14.1307 6.90708 13.9879 6.49614 13.9043 6.04342C13.8277 5.5907 13.7894 5.14494 13.7894 4.70615ZM15.3565 4.70615C15.3565 4.90117 15.3635 5.1345 15.3774 5.40613C15.3983 5.67776 15.447 5.93895 15.5236 6.18969C15.6003 6.44043 15.7152 6.65286 15.8684 6.82698C16.0286 7.0011 16.2515 7.08817 16.537 7.08817C16.8156 7.08817 17.035 7.0011 17.1952 6.82698C17.3554 6.65286 17.4738 6.44043 17.5504 6.18969C17.6271 5.93895 17.6723 5.67776 17.6863 5.40613C17.7072 5.1345 17.7176 4.90117 17.7176 4.70615C17.7176 4.51113 17.7072 4.27781 17.6863 4.00618C17.6723 3.73454 17.6271 3.47336 17.5504 3.22262C17.4738 2.97188 17.3554 2.75945 17.1952 2.58533C17.035 2.4112 16.8156 2.32414 16.537 2.32414C16.2515 2.32414 16.0286 2.4112 15.8684 2.58533C15.7152 2.75945 15.6003 2.97188 15.5236 3.22262C15.447 3.47336 15.3983 3.73454 15.3774 4.00618C15.3635 4.27781 15.3565 4.51113 15.3565 4.70615Z" fill="white"/>
</svg>
