<svg width="17" height="22" viewBox="0 0 17 22" fill="none" xmlns="http://www.w3.org/2000/svg">
<path d="M8.62563 0.744873C6.54825 0.747292 4.55664 1.5736 3.0877 3.04254C1.61877 4.51147 0.792458 6.50308 0.790039 8.58047C0.790039 13.8786 8.08432 21.2336 8.39481 21.5441C8.45603 21.6053 8.53906 21.6397 8.62563 21.6397C8.7122 21.6397 8.79523 21.6053 8.85646 21.5441C9.16694 21.2336 16.4612 13.8786 16.4612 8.58047C16.4588 6.50308 15.6325 4.51147 14.1636 3.04254C12.6946 1.5736 10.703 0.747292 8.62563 0.744873V0.744873ZM8.62563 20.8445C7.37128 19.534 1.44301 13.0993 1.44301 8.58047C1.44301 6.67552 2.19974 4.84859 3.54675 3.50158C4.89375 2.15458 6.72068 1.39784 8.62563 1.39784C10.5306 1.39784 12.3575 2.15458 13.7045 3.50158C15.0515 4.84859 15.8083 6.67552 15.8083 8.58047C15.8083 13.0993 9.87998 19.534 8.62563 20.8445Z" fill="#989898" stroke="#989898" stroke-width="0.208948"/>
<path d="M8.62612 4.33643C7.78668 4.33643 6.96609 4.58535 6.26812 5.05172C5.57015 5.51808 5.02615 6.18095 4.70491 6.95649C4.38367 7.73203 4.29962 8.58541 4.46339 9.40872C4.62716 10.232 5.03139 10.9883 5.62496 11.5819C6.21853 12.1754 6.97479 12.5797 7.7981 12.7434C8.62141 12.9072 9.47479 12.8231 10.2503 12.5019C11.0259 12.1807 11.6887 11.6367 12.1551 10.9387C12.6215 10.2407 12.8704 9.42014 12.8704 8.58071C12.8691 7.45545 12.4215 6.37665 11.6258 5.58098C10.8302 4.7853 9.75137 4.33772 8.62612 4.33643ZM8.62612 12.172C7.91582 12.172 7.22148 11.9614 6.63089 11.5668C6.0403 11.1722 5.57999 10.6113 5.30818 9.95504C5.03636 9.29881 4.96524 8.57672 5.10381 7.88007C5.24238 7.18343 5.58442 6.54352 6.08667 6.04126C6.58893 5.53901 7.22884 5.19697 7.92549 5.0584C8.62213 4.91983 9.34423 4.99095 10.0005 5.26276C10.6567 5.53458 11.2176 5.99489 11.6122 6.58548C12.0068 7.17607 12.2174 7.87041 12.2174 8.58071C12.2163 9.53284 11.8376 10.4456 11.1643 11.1189C10.4911 11.7922 9.57825 12.1709 8.62612 12.172Z" fill="#989898" stroke="#989898" stroke-width="0.208948"/>
</svg>
